<svg xmlns="http://www.w3.org/2000/svg" width="64" height="64" viewBox="0 0 64 64" fill="none">
  <rect width="64" height="64" rx="14" fill="#faf8f3"/>
  <path d="M27.5 8.6c2-2 5.2-2.1 7.3-.2l19.4 17.4c1.2 1.1 1.9 2.6 2 4.2l1.2 18.6c.2 3.6-2.7 6.6-6.3 6.6l-18.6.1c-1.6 0-3.2-.6-4.4-1.7L8.5 36.3c-2.2-2-2.3-5.4-.3-7.5L27.5 8.6Z" fill="#135951"/>
  <circle cx="41.5" cy="23.5" r="5" fill="#faf8f3"/>
  <circle cx="41.5" cy="23.5" r="7.4" stroke="#cf7350" stroke-width="2.4"/>
  <path d="M22 42c3.4 3.6 8.6 4.4 13 2" stroke="#faf8f3" stroke-width="3" stroke-linecap="round"/>
</svg>
